<mxfile host="app.diagrams.net" modified="2023-09-04T03:35:55.106Z" agent="Mozilla/5.0 (Macintosh; Intel Mac OS X 10.15; rv:109.0) Gecko/20100101 Firefox/117.0" version="21.7.2" etag="4klSJ1pyE0D-Yodd2c5m" type="github">
  <diagram name="第 1 页" id="Q6kTICvDA0YsGGYSWOUU">
    <mxGraphModel>
      <root>
        <mxCell id="0" />
        <mxCell id="1" parent="0" />
      </root>
    </mxGraphModel>
  </diagram>
</mxfile>
